<?xml version="1.0" encoding="iso-8859-1"?>
<!-- Generator: Adobe Illustrator 19.0.0, SVG Export Plug-In . SVG Version: 6.00 Build 0)  -->
<svg version="1.1" id="Capa_1" xmlns="http://www.w3.org/2000/svg" xmlns:xlink="http://www.w3.org/1999/xlink" x="0px" y="0px"
	 viewBox="0 0 512 512" style="enable-background:new 0 0 512 512;" xml:space="preserve">
<g>
	<g>
		<g>
			<polygon points="112.004,342.624 160.004,390.624 160.004,512 192.004,512 192.004,377.376 144.004,329.376 144.004,224 
				368.004,224 368.004,329.376 320.004,377.376 320.004,512 352.004,512 352.004,390.624 400.004,342.624 400.004,192 112.004,192 
							"/>
			<rect x="240.004" width="32" height="128"/>
			<rect x="352.006" y="38.319" transform="matrix(0.8321 0.5547 -0.5547 0.8321 115.062 -188.0087)" width="32" height="115.376"/>
			<rect x="86.306" y="79.993" transform="matrix(0.5547 0.8321 -0.8321 0.5547 143.9918 -77.0644)" width="115.376" height="32"/>
			<rect x="240.004" y="448" width="32" height="32"/>
			<rect x="240.004" y="384" width="32" height="32"/>
		</g>
	</g>
</g>
<g>
</g>
<g>
</g>
<g>
</g>
<g>
</g>
<g>
</g>
<g>
</g>
<g>
</g>
<g>
</g>
<g>
</g>
<g>
</g>
<g>
</g>
<g>
</g>
<g>
</g>
<g>
</g>
<g>
</g>
</svg>
